<?xml version="1.0" encoding="utf-8"?>
<!-- Generator: Adobe Illustrator 26.0.3, SVG Export Plug-In . SVG Version: 6.00 Build 0)  -->
<svg version="1.1" id="XMLEditor" xmlns="http://www.w3.org/2000/svg" xmlns:xlink="http://www.w3.org/1999/xlink" x="0px" y="0px"
	 viewBox="0 0 40 40" style="enable-background:new 0 0 40 40;" xml:space="preserve">
<style type="text/css">
	.st0{fill:url(#Pillow_00000023243108404516907170000011597220919853236658_);stroke:#1661BC;stroke-width:0.75;}
	.st1{fill:#FFFFFF;}
	.st2{fill:#FF3209;}
</style>
<linearGradient id="Pillow_00000101781764723032882680000015795156469441831814_" gradientUnits="userSpaceOnUse" x1="19.95" y1="722.1354" x2="19.95" y2="686.0602" gradientTransform="matrix(1 0 0 1 0 -684.11)">
	<stop  offset="0" style="stop-color:#255CD1"/>
	<stop  offset="1" style="stop-color:#5087E5"/>
</linearGradient>
<path id="Pillow" style="fill:url(#Pillow_00000101781764723032882680000015795156469441831814_);stroke:#1661BC;stroke-width:0.75;" d="
	M9.3,2h21.3c4.1,0,7.4,3.3,7.4,7.4v21.3c0,4.1-3.3,7.4-7.4,7.4H9.3c-4.1,0.1-7.4-3.2-7.4-7.3V9.3C1.9,5.3,5.3,2,9.3,2z"/>
<path id="WhiteStroke" class="st1" d="M10.3,36c-0.1,0-0.2,0-0.3-0.1c-0.2-0.1-0.4-0.4-0.4-0.6c0-0.5,1.5-3.8,2.4-5.8
	c1.1-2.4,2.3-5.1,3.7-8.2c0.6-1.3,1.2-2.6,1.8-3.9l-8-12.1l5.6-1.1c0,0,1.9,3.5,2.7,5.2c0.7,1.4,1.5,3,2.4,4.9
	c0.3-0.5,0.7-1.1,1.1-1.9c0.4-0.7,0.8-1.4,1.4-2.2C24.2,7.8,25.3,6,26.2,5c0.2-0.2,0.3-0.2,0.5-0.2c0.1,0,0.2,0,0.3,0.1
	c0.3,0.2,0.5,0.5,0.4,0.8c-0.5,1.7-1,3.2-1.4,4.5c-0.5,1.4-0.8,2.6-1.1,3.6c-0.5,1.5-0.9,3-1.4,4.7l9.9,9.5l-6.1,3.8
	c0,0-2.6-3.7-3.5-5l-1-1.4c-0.6-0.8-1.1-1.5-1.4-2.1c-0.2-0.2-0.3-0.5-0.5-0.7c-2.6,3.8-4.5,6.5-6,8.5c-1.7,2.2-3,3.8-4.1,4.7
	C10.6,35.9,10.4,36,10.3,36z"/>
<path id="X" class="st2" d="M32.3,27.8l-4.8,3.1c-1.6-2.3-2.9-4.2-4.1-5.9c-1.2-1.7-2-2.9-2.5-3.5c-2.8,4.1-5,7.2-6.5,9.2
	s-2.9,3.6-4.1,4.7c0-0.2,0.8-2,2.3-5.5c1.5-3.5,3.5-7.7,5.6-12.5L10.7,5.8L14.7,5c0.8,1.5,1.7,3.1,2.5,4.7c0.8,1.7,1.8,3.6,2.9,5.9
	c0.6-0.9,1.7-2.6,3.2-5s2.6-4.1,3.5-5.1c-1.1,3.6-1.9,6.3-2.5,8.1c-0.5,1.8-1.1,3.5-1.6,5L32.3,27.8z"/>
</svg>
